<svg id="svg" version="1.1" viewBox="0 0 300 207.35818454857488" width="300" height="207.35818454857488" xmlns="http://www.w3.org/2000/svg"><g xmlns="http://www.w3.org/2000/svg" fill="none" fill-rule="nonzero" stroke="none" stroke-width="1" stroke-linecap="butt" stroke-linejoin="miter" stroke-miterlimit="10" stroke-dasharray="" stroke-dashoffset="0" font-family="none" font-weight="none" font-size="none" text-anchor="none" style="mix-blend-mode: normal"><path d="M116.44718,12.05016c2.18537,2.38512 2.00399,4.28467 2.08097,7.46669c0.05048,1.53353 0.05048,1.53353 0.10198,3.09803c0.01001,0.78222 0.02001,1.56445 0.03032,2.37038c0.9605,0.13098 1.921,0.26195 2.91061,0.3969c3.85372,0.86785 5.48336,2.64172 7.67341,5.95351c1.74943,4.93021 2.14609,9.71708 0.5292,14.72943c-1.2348,2.205 -1.2348,2.205 -4.05721,4.32181c-1.9404,0.4851 -1.9404,0.4851 -3.52801,0.7056c0.00818,0.71674 0.01637,1.43347 0.02481,2.17193c0.03871,5.90607 -0.10738,11.71058 -0.73041,17.58491c0.69855,0.23285 1.39709,0.4657 2.1168,0.7056c-0.32766,1.85672 -0.70091,3.51648 -1.41396,5.26721c-0.99251,3.52246 -0.9892,6.91213 -1.09974,10.56472c-0.141,4.46299 -0.38184,8.6705 -1.0143,13.09773c7.684,-0.23285 15.368,-0.4657 23.28484,-0.7056c26.5921,-0.2748 53.18451,-0.52085 79.77705,-0.7497c14.32836,-0.12461 28.65673,-0.24922 43.41929,-0.3776c11.03756,-0.09369 22.07512,-0.18737 33.44716,-0.2839c0,1.86279 0,3.72558 0,5.64481c-26.15134,0.2363 -52.30269,0.47125 -78.45405,0.7056c-14.56303,0.13098 -29.12607,0.26195 -44.1304,0.3969c-19.11424,0.15999 -38.22898,0.3087 -57.34389,0.3087c-0.04275,1.53989 -0.0855,3.07979 -0.12955,4.66634c-0.05912,2.0256 -0.11824,4.0512 -0.17915,6.13818c-0.08596,3.00839 -0.08596,3.00839 -0.17365,6.07754c-0.17698,4.5164 -0.46024,8.96559 -0.92885,13.4588c-0.93139,0.23285 -1.86279,0.4657 -2.82241,0.7056c0,0.4657 0,0.93139 0,1.4112c-0.4657,0.23285 -0.93139,0.4657 -1.4112,0.7056c-1.26898,14.7699 -2.37987,29.54934 -3.49494,44.33161c-1.44427,12.8221 -1.44427,12.8221 -5.67788,16.3501c-19.74479,10.37438 -45.0368,9.76197 -66.02334,3.82569c-4.47871,-1.43761 -8.83957,-3.0384 -13.00401,-5.23689c-0.88774,-0.43113 -1.77547,-0.86227 -2.69011,-1.30646c-3.53839,-3.49503 -2.97826,-6.78309 -3.13111,-11.65896c-0.08277,-1.94192 -0.16554,-3.88384 -0.25082,-5.8846c-0.09187,-2.16203 -0.18373,-4.32407 -0.27838,-6.55162c-0.3483,-4.9259 -0.71592,-9.85048 -1.1025,-14.77353c-0.17555,-2.29119 -0.35109,-4.58239 -0.53196,-6.943c-0.31782,-3.82288 -0.71214,-7.64029 -1.18794,-11.44673c-1.39709,-0.93139 -2.79418,-1.86279 -4.23361,-2.82241c-0.90681,-4.54231 -0.90681,-4.54231 -1.4553,-10.58402c-0.21375,-2.25481 -0.4275,-4.50962 -0.64772,-6.83275c-0.2374,-2.63501 -0.47479,-5.27002 -0.71938,-7.98487c-0.49799,-4.83661 -0.49799,-4.83661 -1.00603,-9.77092c-2.71503,-26.63076 -2.71503,-26.63076 -1.11077,-29.03715c0.69855,0 1.39709,0 2.1168,0c-0.04648,-3.69046 -0.1443,-7.38032 -0.2646,-11.06912c-0.04912,-2.0547 -0.09823,-4.10941 -0.14884,-6.22638c-0.32926,-1.74363 -0.65852,-3.48727 -0.99776,-5.28374c-3.36028,-2.47545 -3.36028,-2.47545 -7.05601,-3.52801c-2.33952,-3.50928 -1.50564,-7.27548 -0.7056,-11.28962c1.70154,-3.74233 4.20634,-7.03965 7.76161,-9.17282c2.2932,-0.5733 2.2932,-0.5733 4.23361,-0.7056c0.34927,0.34927 0.34927,0.34927 0.7056,0.7056c0.11597,-1.08466 0.11597,-1.08466 0.23428,-2.19122c0.11187,-0.95049 0.22375,-1.90099 0.33902,-2.88029c0.10642,-0.9414 0.21284,-1.8828 0.32248,-2.85273c0.8648,-4.46274 2.81194,-6.77143 6.51027,-9.42088c23.80155,-13.47888 72.91738,-9.45972 95.51527,3.70441zM21.28746,15.10684c25.00147,9.29173 59.13324,14.99623 84.67216,4.23361c2.06521,-1.29004 2.06521,-1.29004 3.52801,-2.82241c0,-0.69855 0,-1.39709 0,-2.1168c-13.68754,-4.5939 -27.9194,-6.75462 -42.33608,-7.05601c-1.76273,-0.05457 -1.76273,-0.05457 -3.56109,-0.11025c-22.70151,-0.94112 -22.70151,-0.94112 -42.303,7.87187zM19.17066,20.04605c0,3.49273 0,6.98545 0,10.58402c25.35605,11.63885 62.01513,10.81283 88.20017,2.1168c2.1799,-0.85618 4.24629,-1.7888 6.35041,-2.82241c-0.69855,-4.88982 -0.69855,-4.88982 -1.4112,-9.87842c-0.65489,0.52391 -1.30977,1.04782 -1.9845,1.5876c-16.75985,11.8187 -44.92356,8.33574 -63.52341,5.25894c-8.06307,-1.60847 -15.99991,-3.33838 -23.71207,-6.22363c-1.81818,-0.73814 -1.81818,-0.73814 -3.9194,-0.62291zM10.06123,31.11518c-3.27578,3.51953 -5.0026,5.77385 -5.0026,10.80452c22.56996,16.28903 67.13818,13.38618 92.43378,9.87842c15.09687,-1.69089 15.09687,-1.69089 28.22405,-8.46722c0.39974,-3.99741 -0.47969,-6.94598 -2.1168,-10.58402c-0.69855,-0.69855 -1.39709,-1.39709 -2.1168,-2.1168c-0.69855,0 -1.39709,0 -2.1168,0c-0.32017,0.78586 -0.64033,1.57173 -0.9702,2.3814c-1.8522,2.5578 -1.8522,2.5578 -4.93921,3.39571c-0.94413,0.12552 -0.94413,0.12552 -1.90733,0.25358c-2.23653,0.34684 -4.23296,0.98397 -6.38348,1.68682c-28.25881,8.00117 -63.62072,6.22393 -90.93438,-4.89511c-0.4657,0 -0.93139,0 -1.4112,0c0,-1.16424 0,-2.32848 0,-3.52801c-1.53468,-0.15572 -1.53468,-0.15572 -2.75901,1.1907zM14.23145,51.09251c-0.10372,7.77852 0.29836,15.5182 0.7056,23.28484c31.23931,8.08134 71.28127,12.31678 101.6066,-1.4112c0.69958,-6.59601 0.78131,-13.12769 0.7056,-19.75684c-0.49844,0.07731 -0.99688,0.15463 -1.51043,0.23428c-1.57179,0.24288 -3.1438,0.48435 -4.71595,0.7249c-2.13387,0.32736 -4.26713,0.65862 -6.40002,0.99225c-1.80503,0.27832 -1.80503,0.27832 -3.64653,0.56227c-1.12877,0.17555 -2.25754,0.35109 -3.42052,0.53196c-27.49924,3.69329 -56.45576,1.73084 -83.32435,-5.16247zM12.11464,78.61097c0.53593,11.26055 1.47656,22.4675 2.5137,33.69247c0.32108,3.63462 0.64215,7.26924 0.97295,11.014c0.43668,9.17628 0.43668,9.17628 7.09736,13.15285c21.30898,11.53916 49.07888,10.14205 71.97134,4.93921c-0.4657,-0.69855 -0.93139,-1.39709 -1.4112,-2.1168c-0.4657,0 -0.93139,0 -1.4112,0c-2.55665,-5.20533 -2.18929,-12.10585 -0.9261,-17.65381c1.56665,-4.14508 4.07243,-7.6417 6.57091,-11.27584c0,-0.4657 0,-0.93139 0,-1.4112c0.4657,0 0.93139,0 1.4112,0c0,-0.4657 0,-0.93139 0,-1.4112c0.93139,-0.4657 1.86279,-0.93139 2.82241,-1.4112c0.23285,-0.69855 0.4657,-1.39709 0.7056,-2.1168c1.4553,-0.7056 1.4553,-0.7056 3.52801,-1.4112c0.93139,-0.37838 1.86279,-0.75676 2.82241,-1.1466c2.82241,-0.9702 2.82241,-0.9702 6.35041,-0.9702c0.86613,-4.33063 0.95029,-8.50714 1.1025,-12.92132c0.05912,-1.67087 0.11824,-3.34174 0.17915,-5.06324c0.04275,-1.2834 0.0855,-2.56679 0.12955,-3.88908c-0.72674,0.17919 -1.45348,0.35837 -2.20225,0.54298c-32.7278,7.90798 -67.50538,8.40479 -100.10995,-0.54298c-0.69855,0 -1.39709,0 -2.1168,0zM107.37083,106.83502c0,0.4657 0,0.93139 0,1.4112c-0.4657,0 -0.93139,0 -1.4112,0c0,0.4657 0,0.93139 0,1.4112c-0.4657,0 -0.93139,0 -1.4112,0c0,0.4657 0,0.93139 0,1.4112c-1.39709,0.69855 -1.39709,0.69855 -2.82241,1.4112c-5.17119,6.60578 -7.46988,12.82948 -7.05601,21.16804c0.4657,0 0.93139,0 1.4112,0c0,0.69855 0,1.39709 0,2.1168c7.43292,0.58681 12.21665,-1.55882 18.34564,-5.64481c0.42026,-3.53235 0.42026,-3.53235 0.4851,-7.67341c0.06822,-2.1925 0.06822,-2.1925 0.13781,-4.4293c0.0842,-4.20146 0.14025,-8.3916 0.08269,-12.59333c-3.24724,-0.12489 -4.7866,-0.0763 -7.76161,1.4112zM108.07643,141.40949c-0.91275,0.3329 -0.91275,0.3329 -1.84393,0.67253c-24.61888,8.6309 -54.43507,10.52199 -79.12933,1.32575c-1.76383,-0.68756 -1.76383,-0.68756 -4.4045,-1.29268c0.51354,8.05663 1.04627,16.11204 1.5876,24.16685c0.2947,4.48597 0.5894,8.97194 0.89302,13.59385c-0.18266,10.29448 -0.18266,10.29448 3.86979,13.7482c16.50252,9.77927 40.63188,10.31212 58.77163,6.389c5.90842,-1.681 11.78057,-3.38424 16.72771,-7.0946c0.92154,-8.21729 1.67194,-16.45406 2.3373,-24.69605c0.56347,-6.81082 0.56347,-6.81082 1.13833,-13.75923c0.86459,-6.63325 0.86459,-6.63325 0.05237,-13.05363z" fill="#f1e6da"/><path d="M37.51629,9.46203c0.93139,0.4657 1.86279,0.93139 2.82241,1.4112c0.23285,0.69855 0.4657,1.39709 0.7056,2.1168c-0.23285,0.4657 -0.4657,0.93139 -0.7056,1.4112c0.83043,-0.05094 1.66087,-0.10187 2.51646,-0.15435c6.52374,-0.36724 12.99906,-0.57498 19.53358,-0.50715c9.1171,0.04945 18.7091,-0.02457 27.64799,-1.98726c1.81086,-0.17364 1.81086,-0.17364 4.63327,1.94316c-0.23285,1.16424 -0.4657,2.32848 -0.7056,3.52801c-0.61123,0.10187 -1.22245,0.20374 -1.8522,0.3087c-0.78586,0.13098 -1.57173,0.26195 -2.3814,0.3969c-6.49406,1.08234 -13.00608,1.16526 -19.58044,1.4553c-2.76143,0.12461 -5.52288,0.24922 -8.36799,0.37761c-21.79033,0.76968 -21.79033,0.76968 -27.08847,-1.83291c-0.69855,-0.93139 -1.39709,-1.86279 -2.1168,-2.82241c0.7056,-2.82241 0.7056,-2.82241 2.82241,-4.93921c0.69855,-0.23285 1.39709,-0.4657 2.1168,-0.7056z" fill="#f0e5d9"/></g></svg>