<svg id="svg" version="1.1" viewBox="0 0 300 157.10189903949723" width="300" height="157.10189903949723" xmlns="http://www.w3.org/2000/svg"><g xmlns="http://www.w3.org/2000/svg" fill="#f0e5d9" fill-rule="nonzero" stroke="none" stroke-width="1" stroke-linecap="butt" stroke-linejoin="miter" stroke-miterlimit="10" stroke-dasharray="" stroke-dashoffset="0" font-family="none" font-weight="none" font-size="none" text-anchor="none" style="mix-blend-mode: normal"><path d="M215.91051,0.85162c5.45893,5.34975 5.85267,18.28535 7.33899,25.19502c2.78032,12.90959 5.56501,25.81789 8.37923,38.72014c0.9974,4.57546 1.9948,9.15093 3.02242,13.86504c0.93658,4.2903 1.87316,8.5806 2.83812,13.00091c2.07638,9.90068 2.07638,9.90068 2.07638,13.04596c-2.33537,0.77846 -2.33537,0.77846 -4.71792,1.57264c0.51897,0 1.03794,0 1.57264,0c9.3523,1.03914 18.52143,3.59007 27.68504,5.66806c11.37718,2.57809 22.73312,5.14947 34.17218,7.43728c1.82739,2.43652 1.89677,3.3271 1.57264,6.29056c-3.86315,3.86315 -10.00222,3.76438 -15.2022,4.71792c-2.80637,0.51559 -5.61273,1.03119 -8.50414,1.5624c-3.08612,0.55479 -6.17224,1.10957 -9.35189,1.68117c-3.04423,0.54803 -6.08845,1.09606 -9.22493,1.66069c-7.98927,1.43153 -15.97962,2.85712 -23.97049,4.27971c-19.29158,3.45363 -38.57273,6.96302 -57.85394,10.47404c-48.8078,8.88756 -48.8078,8.88756 -71.55517,2.88318c-3.70038,-0.97307 -7.40075,-1.94614 -11.21326,-2.9487c-5.28297,-1.39473 -5.28297,-1.39473 -10.67267,-2.81765c-8.71293,-2.74722 -8.71293,-2.74722 -17.82327,-4.19371c2.07589,0.77846 2.07589,0.77846 4.19371,1.57264c-0.17299,0.86495 -0.34598,1.72991 -0.52421,2.62107c-22.71836,0.39945 -45.42595,0.59413 -68.14778,0.52421c0,-0.86495 0,-1.72991 0,-2.62107c20.62154,-0.4846 41.23043,-0.5829 61.85722,-0.52421c-2.4411,-2.83043 -2.4411,-2.83043 -5.04556,-5.50424c-5.91988,-6.23145 -6.55262,-15.94032 -8.45295,-23.91725c-0.8832,-3.68416 -1.7664,-7.36832 -2.67636,-11.16412c-0.88995,-3.73281 -1.77991,-7.46562 -2.69683,-11.31155c-1.58011,-6.53167 -3.16343,-13.06256 -4.75069,-19.59249c-1.07747,-4.45282 -1.07747,-4.45282 -2.17671,-8.99559c-2.07069,-8.46012 -4.21949,-16.897 -6.44414,-25.31788c-0.77906,-3.74235 -1.36881,-6.67522 0.69212,-10.01535c3.72318,-3.51043 10.05331,-3.07399 14.77627,-3.70226c7.54796,-1.14805 15.09426,-2.30703 22.63948,-3.47292c47.23015,-7.28586 47.23015,-7.28586 70.14634,-10.68085c9.62216,-1.481 19.24359,-2.96679 28.86452,-4.45582c46.01281,-7.1195 46.01281,-7.1195 49.1778,-5.53701zM198.44764,3.86584c-16.28192,2.58812 -32.57707,5.08355 -48.87474,7.57038c-27.14514,4.1488 -54.28543,8.3293 -81.42513,12.51355c-5.66882,0.87306 -11.33764,1.74612 -17.17824,2.64564c-7.49772,0.89399 -7.49772,0.89399 -14.7988,2.59649c-1.47822,1.84615 -1.47822,1.84615 -0.52421,5.76635c7.53513,32.5753 15.48038,65.06681 23.58962,97.50375c2.86422,1.43211 17.75964,-2.29044 19.85459,-2.65383c15.7423,-2.71278 31.48806,-5.39901 47.24476,-8.02702c3.39494,-0.56627 6.78988,-1.13255 10.28769,-1.71598c7.67969,-1.26326 15.36319,-2.50347 23.04902,-3.72888c15.54728,-2.49538 31.07708,-5.08531 46.60587,-7.69324c8.31165,-1.39372 8.31165,-1.39372 16.79122,-2.8156c7.1526,-0.70468 7.1526,-0.70468 13.87528,-2.72141c-1.43162,-14.31616 -5.63128,-28.78701 -8.71505,-42.78894c-1.50961,-6.86151 -3.01922,-13.72301 -4.57458,-20.79244c-1.32311,-6.00466 -2.64621,-12.00933 -4.00942,-18.19595c-1.8164,-8.30354 -1.8164,-8.30354 -3.6695,-16.77484c-5.40103,-4.50086 -10.76261,-1.77313 -17.5284,-0.68803zM32.50125,30.24034c-1.38767,1.7665 -1.38767,1.7665 -1.04843,5.24214c1.22239,5.21998 2.49883,10.42735 3.80055,15.62812c2.6151,10.50858 5.22094,21.0172 7.73215,31.55111c0.49397,2.05697 0.98794,4.11393 1.49688,6.23323c1.26361,5.26793 2.51945,10.53772 3.77188,15.80832c0.73724,3.06247 1.47448,6.12494 2.23405,9.28022c1.01868,4.26124 1.01868,4.26124 2.05795,8.60857c1.48073,5.44318 2.80277,9.78454 5.64144,14.58788c0.34598,-0.17299 0.69196,-0.34598 1.04843,-0.52421c0,-0.51897 0,-1.03794 0,-1.57264c-0.51897,-0.51897 -1.03794,-1.03794 -1.57264,-1.57264c-1.37206,-5.10587 -2.66833,-10.23215 -3.9316,-15.36601c-0.75211,-3.05099 -1.5042,-6.10197 -2.2791,-9.24541c-2.68115,-11.00964 -5.33892,-22.02397 -7.94306,-33.05208c-0.79704,-3.37467 -1.59428,-6.7493 -2.39172,-10.12388c-0.37369,-1.58327 -0.74737,-3.16654 -1.13239,-4.79778c-1.76028,-7.37024 -3.58066,-14.72557 -5.4039,-22.08046c-1.03205,-4.41077 -1.03205,-4.41077 -1.55626,-8.60447c-0.17299,0 -0.34598,0 -0.52421,0zM215.84499,108.8724c-2.59891,0.43788 -2.59891,0.43788 -5.25033,0.88461c-1.33798,0.22705 -2.67595,0.4541 -4.05447,0.68803c0,0.17299 0,0.34598 0,0.52421c11.30775,-0.01692 11.30775,-0.01692 20.96855,-3.6695c-3.92685,0 -7.80198,0.91995 -11.66375,1.57264zM234.32352,109.92083c5.80374,1.45749 11.61383,2.88543 17.43011,4.292c8.11075,1.96216 8.11075,1.96216 10.35322,2.52278c0,0.51897 0,1.03794 0,1.57264c-2.07589,0.17299 -4.15177,0.34598 -6.29056,0.52421c-6.0667,1.00495 -12.12727,2.04717 -18.18366,3.11252c-3.2456,0.56695 -6.4912,1.1339 -9.83515,1.71803c-2.51715,0.48181 -5.03429,0.96361 -7.62772,1.46002c-0.17299,0.34598 -0.34598,0.69196 -0.52421,1.04843c1.47391,0.41657 2.94837,0.83119 4.42305,1.24501c0.82103,0.2311 1.64206,0.46221 2.48797,0.70032c2.40312,0.64317 4.81055,1.20316 7.24275,1.72417c0,0.51897 0,1.03794 0,1.57264c-12.28233,2.42187 -24.56465,4.84373 -37.21917,7.33899c0,0.17299 0,0.34598 0,0.52421c17.09999,-1.31538 34.25459,-5.52639 51.07807,-8.64953c8.07582,-1.49745 16.15164,-2.9949 24.47218,-4.53772c6.3797,-1.18391 12.7594,-2.36781 19.33243,-3.58759c1.55691,-0.25949 1.55691,-0.25949 3.14528,-0.52421c0,-0.34598 0,-0.69196 0,-1.04843c-15.56987,-3.47535 -31.15044,-6.89905 -46.73898,-10.28974c-5.68239,-1.24296 -5.68239,-1.24296 -7.77925,-1.76717c-3.18348,-0.36497 -3.18348,-0.36497 -5.76635,1.04843zM203.39491,110.96925c0,0.17299 0,0.34598 0,0.52421c1.03794,0 2.07589,0 3.14528,0c0,-0.17299 0,-0.34598 0,-0.52421c-1.03794,0 -2.07589,0 -3.14528,0zM200.24963,111.49347c0,0.17299 0,0.34598 0,0.52421c1.03794,0 2.07589,0 3.14528,0c0,-0.17299 0,-0.34598 0,-0.52421c-1.03794,0 -2.07589,0 -3.14528,0zM197.10435,112.01768c0,0.17299 0,0.34598 0,0.52421c1.03794,0 2.07589,0 3.14528,0c0,-0.17299 0,-0.34598 0,-0.52421c-1.03794,0 -2.07589,0 -3.14528,0zM193.95906,112.54189c0,0.17299 0,0.34598 0,0.52421c1.03794,0 2.07589,0 3.14528,0c0,-0.17299 0,-0.34598 0,-0.52421c-1.03794,0 -2.07589,0 -3.14528,0zM190.81378,113.06611c0,0.17299 0,0.34598 0,0.52421c1.03794,0 2.07589,0 3.14528,0c0,-0.17299 0,-0.34598 0,-0.52421c-1.03794,0 -2.07589,0 -3.14528,0zM187.6685,113.59032c0,0.17299 0,0.34598 0,0.52421c0.86495,0 1.72991,0 2.62107,0c0,-0.17299 0,-0.34598 0,-0.52421c-0.86495,0 -1.72991,0 -2.62107,0zM184.52322,114.11453c0,0.17299 0,0.34598 0,0.52421c1.03794,0 2.07589,0 3.14528,0c0,-0.17299 0,-0.34598 0,-0.52421c-1.03794,0 -2.07589,0 -3.14528,0zM180.85372,114.63875c0,0.17299 0,0.34598 0,0.52421c1.21093,0 2.42187,0 3.6695,0c0,-0.17299 0,-0.34598 0,-0.52421c-1.21093,0 -2.42187,0 -3.6695,0zM177.70844,115.16296c0,0.17299 0,0.34598 0,0.52421c1.03794,0 2.07589,0 3.14528,0c0,-0.17299 0,-0.34598 0,-0.52421c-1.03794,0 -2.07589,0 -3.14528,0zM174.56316,115.68718c0,0.17299 0,0.34598 0,0.52421c1.03794,0 2.07589,0 3.14528,0c0,-0.17299 0,-0.34598 0,-0.52421c-1.03794,0 -2.07589,0 -3.14528,0zM167.74838,116.7356c0,0.17299 0,0.34598 0,0.52421c3.37332,-0.25949 3.37332,-0.25949 6.81478,-0.52421c0,-0.17299 0,-0.34598 0,-0.52421c-2.34548,-0.04691 -4.51119,0.07473 -6.81478,0.52421zM164.6031,117.25982c0,0.17299 0,0.34598 0,0.52421c1.03794,0 2.07589,0 3.14528,0c0,-0.17299 0,-0.34598 0,-0.52421c-1.03794,0 -2.07589,0 -3.14528,0zM181.90215,117.25982c2.09685,0.52421 2.09685,0.52421 2.09685,0.52421zM161.45782,117.78403c0,0.17299 0,0.34598 0,0.52421c0.86495,0 1.72991,0 2.62107,0c0,-0.17299 0,-0.34598 0,-0.52421c-0.86495,0 -1.72991,0 -2.62107,0zM158.31253,118.30824c2.09685,0.52421 2.09685,0.52421 2.09685,0.52421zM155.16725,118.83246c2.09685,0.52421 2.09685,0.52421 2.09685,0.52421zM152.02197,119.35667c2.09685,0.52421 2.09685,0.52421 2.09685,0.52421zM165.65153,119.88089c2.09685,0.52421 2.09685,0.52421 2.09685,0.52421zM159.36096,120.92931c2.09685,0.52421 2.09685,0.52421 2.09685,0.52421zM156.21568,121.45353c2.09685,0.52421 2.09685,0.52421 2.09685,0.52421zM153.0704,121.97774c2.09685,0.52421 2.09685,0.52421 2.09685,0.52421zM149.92511,122.50195c2.09685,0.52421 2.09685,0.52421 2.09685,0.52421zM146.77983,123.02617c2.09685,0.52421 2.09685,0.52421 2.09685,0.52421zM143.11034,123.55038c0,0.17299 0,0.34598 0,0.52421c0.86495,0 1.72991,0 2.62107,0c0,-0.17299 0,-0.34598 0,-0.52421c-0.86495,0 -1.72991,0 -2.62107,0zM139.96505,124.07459c0,0.17299 0,0.34598 0,0.52421c0.86495,0 1.72991,0 2.62107,0c0,-0.17299 0,-0.34598 0,-0.52421c-0.86495,0 -1.72991,0 -2.62107,0zM266.30055,128.9891c-21.1303,3.86666 -42.26129,7.729 -63.39709,11.56546c-20.59518,3.74087 -41.18289,7.5211 -61.76711,11.32179c-16.89814,3.08606 -28.95417,-0.92448 -45.56564,-5.45715c-6.17039,-1.68199 -12.34082,-3.36385 -18.5113,-5.04556c-2.58742,-0.70953 -5.17485,-1.41906 -7.84068,-2.15009c-5.12941,-1.60813 -5.12941,-1.60813 -7.88573,-1.5194c0.17299,0.51897 0.34598,1.03794 0.52421,1.57264c6.60948,1.82025 13.24384,3.55032 19.88736,5.24214c13.59783,3.47027 27.18116,6.95881 40.70438,10.70952c13.01302,2.75618 29.22812,-3.20003 41.85928,-5.50015c8.78907,-1.59847 8.78907,-1.59847 17.75569,-3.22924c9.8362,-1.79314 19.67214,-3.58771 29.5075,-5.38547c7.57403,-1.36781 15.16027,-2.66835 22.7521,-3.93365c10.15891,-1.84414 20.31527,-3.70234 30.46992,-5.56977c5.39649,-0.99064 10.79299,-1.98128 16.35301,-3.00194c8.13471,-1.38295 8.13471,-1.38295 16.08271,-3.4852c0.17299,-0.51897 0.34598,-1.03794 0.52421,-1.57264c-8.58884,0 -23.53598,3.98843 -31.45282,5.43872zM136.81977,124.59881c0,0.17299 0,0.34598 0,0.52421c0.86495,0 1.72991,0 2.62107,0c0,-0.17299 0,-0.34598 0,-0.52421c-0.86495,0 -1.72991,0 -2.62107,0zM133.67449,125.12302c0,0.17299 0,0.34598 0,0.52421c0.86495,0 1.72991,0 2.62107,0c0,-0.17299 0,-0.34598 0,-0.52421c-0.86495,0 -1.72991,0 -2.62107,0zM130.00499,125.64724c0,0.17299 0,0.34598 0,0.52421c1.03794,0 2.07589,0 3.14528,0c0,-0.17299 0,-0.34598 0,-0.52421c-1.03794,0 -2.07589,0 -3.14528,0zM126.85971,126.17145c0,0.17299 0,0.34598 0,0.52421c1.03794,0 2.07589,0 3.14528,0c0,-0.17299 0,-0.34598 0,-0.52421c-1.03794,0 -2.07589,0 -3.14528,0zM123.71443,126.69566c0,0.17299 0,0.34598 0,0.52421c1.03794,0 2.07589,0 3.14528,0c0,-0.17299 0,-0.34598 0,-0.52421c-1.03794,0 -2.07589,0 -3.14528,0zM120.56915,127.21988c0,0.17299 0,0.34598 0,0.52421c1.03794,0 2.07589,0 3.14528,0c0,-0.17299 0,-0.34598 0,-0.52421c-1.03794,0 -2.07589,0 -3.14528,0zM204.96755,127.74409c2.09685,0.52421 2.09685,0.52421 2.09685,0.52421zM202.34648,128.2683c2.09685,0.52421 2.09685,0.52421 2.09685,0.52421zM199.2012,128.79252c2.09685,0.52421 2.09685,0.52421 2.09685,0.52421zM194.9092,132.46201c-4.07271,0.77846 -8.14542,1.55691 -12.34155,2.35896c-3.16045,0.60547 -6.32091,1.21093 -9.57714,1.83475c8.20462,5.46975 19.04249,1.20705 27.78333,-0.52421c8.56594,-1.72914 17.12751,-3.47877 25.68647,-5.24214c-1.38461,-1.38461 -2.52083,-1.48038 -4.42305,-1.90027c-0.60479,-0.1365 -1.20958,-0.273 -1.8327,-0.41364c-7.55138,-1.44294 -18.10324,2.51048 -25.29536,3.88655zM196.05592,129.31673c0,0.17299 0,0.34598 0,0.52421c0.86495,0 1.72991,0 2.62107,0c0,-0.17299 0,-0.34598 0,-0.52421c-0.86495,0 -1.72991,0 -2.62107,0zM92.09779,131.61017c-4.52816,0.71764 -9.05633,1.43528 -13.7217,2.17467c-6.46489,0.34238 -6.46489,0.34238 -11.80095,2.87089c2.77021,0.72372 2.77021,0.72372 5.59639,1.46206c2.53202,0.66358 5.06403,1.32716 7.67277,2.01085c2.71041,0.7102 5.42082,1.42041 8.21336,2.15214c9.88877,2.63556 19.73216,5.4181 29.56688,8.24817c13.27958,3.17088 26.18774,-0.89934 39.3447,-3.38896c4.64844,-0.87576 9.29689,-1.75153 14.08619,-2.65383c3.57942,-0.68115 7.15884,-1.3623 10.84672,-2.06409c-2.51256,-1.25628 -5.06367,-2.07006 -7.73215,-2.9487c-1.00281,-0.33111 -2.00561,-0.66223 -3.0388,-1.00338c-0.77035,-0.25273 -1.5407,-0.50546 -2.33439,-0.76584c0,-0.51897 0,-1.03794 0,-1.57264c5.01914,-1.67305 10.20842,-2.46926 15.39878,-3.47292c2.20968,-0.42842 4.41937,-0.85684 6.69601,-1.29825c2.55634,-0.49262 2.55634,-0.49262 5.16432,-0.99519c0,-0.17299 0,-0.34598 0,-0.52421c-10.74598,0.97691 -21.34979,3.14898 -31.97703,4.98003c-4.74642,0.8163 -9.49285,1.6326 -14.38311,2.47363c-9.77266,1.69526 -19.53615,3.44416 -29.29044,5.24214c-12.15231,2.02538 -18.40247,0.66198 -30.044,-2.01495c-2.28807,-0.52573 -4.57614,-1.05146 -6.93354,-1.59312c-1.75559,-0.4041 -3.51117,-0.80819 -5.31995,-1.22453c0,-0.69196 0,-1.38392 0,-2.09685c14.14684,-2.4876 28.30045,-4.93252 42.46131,-7.33899c0,-0.17299 0,-0.34598 0,-0.52421c-9.42505,0 -19.21322,2.39109 -28.47136,3.86608zM193.95906,139.27679c0,0.17299 0,0.34598 0,0.52421c0.86495,0 1.72991,0 2.62107,0c0,-0.17299 0,-0.34598 0,-0.52421c-0.86495,0 -1.72991,0 -2.62107,0zM191.338,139.80101c2.09685,0.52421 2.09685,0.52421 2.09685,0.52421zM188.71693,140.32522c2.09685,0.52421 2.09685,0.52421 2.09685,0.52421z"/></g></svg>